<?xml version="1.0" standalone="no"?>
<!DOCTYPE svg PUBLIC "-//W3C//DTD SVG 20010904//EN"
 "http://www.w3.org/TR/2001/REC-SVG-20010904/DTD/svg10.dtd">
<svg version="1.0" xmlns="http://www.w3.org/2000/svg"
 width="626.000000pt" height="626.000000pt" viewBox="0 0 626.000000 626.000000"
 preserveAspectRatio="xMidYMid meet">

<g transform="translate(0.000000,626.000000) scale(0.100000,-0.100000)"
fill="#000000" stroke="none">
<path d="M1710 3606 l0 -384 185 106 185 107 0 278 0 277 -185 0 -185 0 0
-384z"/>
<path d="M2790 3713 l1 -278 175 -100 c96 -55 179 -101 184 -103 6 -2 10 139
10 377 l0 381 -185 0 -185 0 0 -277z"/>
<path d="M3340 3583 l1 -408 177 -102 177 -102 3 204 c2 182 9 234 25 192 8
-22 458 -702 466 -705 4 -1 32 35 62 80 29 46 138 211 241 368 l188 284 0
-562 0 -562 190 0 190 0 0 860 0 860 -207 -2 -207 -3 -220 -357 c-122 -196
-225 -356 -231 -354 -5 1 -109 163 -230 359 l-220 356 -202 0 -203 1 0 -407z"/>
<path d="M1960 3187 c-261 -151 -538 -309 -615 -353 l-140 -80 -3 -197 c-1
-108 1 -197 5 -197 5 0 118 63 253 140 l245 139 3 -184 2 -185 185 0 185 0 0
288 c0 263 2 290 18 304 9 8 89 56 178 107 l161 92 176 -103 177 -103 0 -292
0 -293 185 0 185 0 0 178 c0 98 2 181 5 184 3 3 114 -57 248 -133 133 -76 245
-139 250 -139 4 0 6 89 5 197 l-3 197 -165 94 c-91 52 -365 210 -609 351 -245
141 -447 257 -450 259 -4 1 -220 -121 -481 -271z"/>
</g>
</svg>
